<svg xmlns="http://www.w3.org/2000/svg" xmlns:xlink="http://www.w3.org/1999/xlink" width="720" height="440" viewBox="0 0 720 440" role="img" aria-labelledby="title desc">
<title id="title">Editable Bézier paths</title><desc id="desc">A cobalt curve is drawn between three anchors. Its middle tangent rotates slightly, showing direct path editing. The complete path remains visible as a pale guide.</desc>
<defs>
<filter id="shadow" x="-40%" y="-50%" width="180%" height="220%" color-interpolation-filters="sRGB"><feGaussianBlur stdDeviation="12"/></filter>
<filter id="small-shadow" x="-30%" y="-30%" width="160%" height="180%" color-interpolation-filters="sRGB"><feGaussianBlur stdDeviation="5"/></filter>
<linearGradient id="paper" x1="0" y1="0" x2="0" y2="1"><stop stop-color="#ffffff"/><stop offset="1" stop-color="#f3f5f8"/></linearGradient>
<linearGradient id="side" x1="0" y1="0" x2="1" y2="1"><stop stop-color="#e8ebf0"/><stop offset="1" stop-color="#cbd2dd"/></linearGradient>
<radialGradient id="ao"><stop offset="0" stop-color="#ffffff"/><stop offset=".455" stop-color="#737b86"/><stop offset=".52" stop-color="#b8bec7"/><stop offset=".64" stop-color="#edf0f4"/><stop offset=".81" stop-color="#ffffff"/><stop offset="1" stop-color="#e1e5eb"/></radialGradient>
<radialGradient id="curvature"><stop offset="0" stop-color="#939ca9"/><stop offset=".455" stop-color="#343c47"/><stop offset=".5" stop-color="#525c6c"/><stop offset=".6" stop-color="#9ba4b2"/><stop offset=".8" stop-color="#aeb6c1"/><stop offset=".945" stop-color="#f8f9fc"/><stop offset="1" stop-color="#ffffff"/></radialGradient>
<radialGradient id="height"><stop offset="0" stop-color="#242a34"/><stop offset=".46" stop-color="#515b6a"/><stop offset=".67" stop-color="#f7f9fd"/><stop offset=".77" stop-color="#ffffff"/><stop offset="1" stop-color="#4d5869"/></radialGradient>
<g id="hf"><path d="M0 0H18V34H52V0H70V86H52V51H18V86H0Z M86 0H144V17H104V36H137V53H104V86H86Z"/></g>
</defs>
<style>
.curve-shape{animation:reshape 7s ease-in-out infinite}
.tangent{animation:tangent 7s ease-in-out infinite;transform-origin:0px 0px}
.draw{stroke-dasharray:800;stroke-dashoffset:0;animation:reshape 7s ease-in-out infinite,draw 7s ease-in-out infinite}
@keyframes reshape{0%,55%,100%{d:path('M122 294C190 294 230 135 334 135C438 135 480 290 597 210')}72%,86%{d:path('M122 294C190 294 232.27 113.38 334 135C435.73 156.62 480 290 597 210')}}
@keyframes tangent{0%,55%,100%{transform:rotate(0deg)}72%,86%{transform:rotate(12deg)}}
@keyframes draw{0%,12%{stroke-dashoffset:0;opacity:1}19%{stroke-dashoffset:0;opacity:0}20%{stroke-dashoffset:800;opacity:0}22%{opacity:1}53%,100%{stroke-dashoffset:0;opacity:1}}

@media (prefers-reduced-motion: reduce) { * { animation: none !important; transition: none !important; } }
</style><rect width="720" height="440" fill="#fafbfc"/><ellipse cx="360" cy="357" rx="243" ry="17" fill="#263a61" opacity=".06" filter="url(#shadow)"/>
<path d="M102 54H618Q655 54 655 91V349Q655 386 618 386H102Q65 386 65 349V91Q65 54 102 54Z" fill="#fff" stroke="#e8ebf0"/>
<g fill="#d8dfe9"><circle cx="99" cy="88" r="1"/><circle cx="133" cy="88" r="1"/><circle cx="167" cy="88" r="1"/><circle cx="201" cy="88" r="1"/><circle cx="235" cy="88" r="1"/><circle cx="269" cy="88" r="1"/><circle cx="303" cy="88" r="1"/><circle cx="337" cy="88" r="1"/><circle cx="371" cy="88" r="1"/><circle cx="405" cy="88" r="1"/><circle cx="439" cy="88" r="1"/><circle cx="473" cy="88" r="1"/><circle cx="507" cy="88" r="1"/><circle cx="541" cy="88" r="1"/><circle cx="575" cy="88" r="1"/><circle cx="609" cy="88" r="1"/><circle cx="99" cy="122" r="1"/><circle cx="133" cy="122" r="1"/><circle cx="167" cy="122" r="1"/><circle cx="201" cy="122" r="1"/><circle cx="235" cy="122" r="1"/><circle cx="269" cy="122" r="1"/><circle cx="303" cy="122" r="1"/><circle cx="337" cy="122" r="1"/><circle cx="371" cy="122" r="1"/><circle cx="405" cy="122" r="1"/><circle cx="439" cy="122" r="1"/><circle cx="473" cy="122" r="1"/><circle cx="507" cy="122" r="1"/><circle cx="541" cy="122" r="1"/><circle cx="575" cy="122" r="1"/><circle cx="609" cy="122" r="1"/><circle cx="99" cy="156" r="1"/><circle cx="133" cy="156" r="1"/><circle cx="167" cy="156" r="1"/><circle cx="201" cy="156" r="1"/><circle cx="235" cy="156" r="1"/><circle cx="269" cy="156" r="1"/><circle cx="303" cy="156" r="1"/><circle cx="337" cy="156" r="1"/><circle cx="371" cy="156" r="1"/><circle cx="405" cy="156" r="1"/><circle cx="439" cy="156" r="1"/><circle cx="473" cy="156" r="1"/><circle cx="507" cy="156" r="1"/><circle cx="541" cy="156" r="1"/><circle cx="575" cy="156" r="1"/><circle cx="609" cy="156" r="1"/><circle cx="99" cy="190" r="1"/><circle cx="133" cy="190" r="1"/><circle cx="167" cy="190" r="1"/><circle cx="201" cy="190" r="1"/><circle cx="235" cy="190" r="1"/><circle cx="269" cy="190" r="1"/><circle cx="303" cy="190" r="1"/><circle cx="337" cy="190" r="1"/><circle cx="371" cy="190" r="1"/><circle cx="405" cy="190" r="1"/><circle cx="439" cy="190" r="1"/><circle cx="473" cy="190" r="1"/><circle cx="507" cy="190" r="1"/><circle cx="541" cy="190" r="1"/><circle cx="575" cy="190" r="1"/><circle cx="609" cy="190" r="1"/><circle cx="99" cy="224" r="1"/><circle cx="133" cy="224" r="1"/><circle cx="167" cy="224" r="1"/><circle cx="201" cy="224" r="1"/><circle cx="235" cy="224" r="1"/><circle cx="269" cy="224" r="1"/><circle cx="303" cy="224" r="1"/><circle cx="337" cy="224" r="1"/><circle cx="371" cy="224" r="1"/><circle cx="405" cy="224" r="1"/><circle cx="439" cy="224" r="1"/><circle cx="473" cy="224" r="1"/><circle cx="507" cy="224" r="1"/><circle cx="541" cy="224" r="1"/><circle cx="575" cy="224" r="1"/><circle cx="609" cy="224" r="1"/><circle cx="99" cy="258" r="1"/><circle cx="133" cy="258" r="1"/><circle cx="167" cy="258" r="1"/><circle cx="201" cy="258" r="1"/><circle cx="235" cy="258" r="1"/><circle cx="269" cy="258" r="1"/><circle cx="303" cy="258" r="1"/><circle cx="337" cy="258" r="1"/><circle cx="371" cy="258" r="1"/><circle cx="405" cy="258" r="1"/><circle cx="439" cy="258" r="1"/><circle cx="473" cy="258" r="1"/><circle cx="507" cy="258" r="1"/><circle cx="541" cy="258" r="1"/><circle cx="575" cy="258" r="1"/><circle cx="609" cy="258" r="1"/><circle cx="99" cy="292" r="1"/><circle cx="133" cy="292" r="1"/><circle cx="167" cy="292" r="1"/><circle cx="201" cy="292" r="1"/><circle cx="235" cy="292" r="1"/><circle cx="269" cy="292" r="1"/><circle cx="303" cy="292" r="1"/><circle cx="337" cy="292" r="1"/><circle cx="371" cy="292" r="1"/><circle cx="405" cy="292" r="1"/><circle cx="439" cy="292" r="1"/><circle cx="473" cy="292" r="1"/><circle cx="507" cy="292" r="1"/><circle cx="541" cy="292" r="1"/><circle cx="575" cy="292" r="1"/><circle cx="609" cy="292" r="1"/><circle cx="99" cy="326" r="1"/><circle cx="133" cy="326" r="1"/><circle cx="167" cy="326" r="1"/><circle cx="201" cy="326" r="1"/><circle cx="235" cy="326" r="1"/><circle cx="269" cy="326" r="1"/><circle cx="303" cy="326" r="1"/><circle cx="337" cy="326" r="1"/><circle cx="371" cy="326" r="1"/><circle cx="405" cy="326" r="1"/><circle cx="439" cy="326" r="1"/><circle cx="473" cy="326" r="1"/><circle cx="507" cy="326" r="1"/><circle cx="541" cy="326" r="1"/><circle cx="575" cy="326" r="1"/><circle cx="609" cy="326" r="1"/><circle cx="99" cy="360" r="1"/><circle cx="133" cy="360" r="1"/><circle cx="167" cy="360" r="1"/><circle cx="201" cy="360" r="1"/><circle cx="235" cy="360" r="1"/><circle cx="269" cy="360" r="1"/><circle cx="303" cy="360" r="1"/><circle cx="337" cy="360" r="1"/><circle cx="371" cy="360" r="1"/><circle cx="405" cy="360" r="1"/><circle cx="439" cy="360" r="1"/><circle cx="473" cy="360" r="1"/><circle cx="507" cy="360" r="1"/><circle cx="541" cy="360" r="1"/><circle cx="575" cy="360" r="1"/><circle cx="609" cy="360" r="1"/></g><path class="curve-shape" d="M122 294C190 294 230 135 334 135C438 135 480 290 597 210" fill="none" stroke="#2457e7" stroke-opacity=".16" stroke-width="9" stroke-linecap="round"/><path class="draw" d="M122 294C190 294 230 135 334 135C438 135 480 290 597 210" fill="none" stroke="#2457e7" stroke-width="7" stroke-linecap="round"/><g fill="none" stroke="#9ca8bb" stroke-width="1.5"><path d="M122 294H190M480 290L597 210"/></g>
<g fill="#fff" stroke="#9ca8bb" stroke-width="2"><circle cx="190" cy="294" r="5"/><circle cx="480" cy="290" r="5"/></g>
<g transform="translate(334 135)"><g class="tangent"><path d="M-104 0H104" fill="none" stroke="#2457e7" stroke-width="1.6" stroke-opacity=".55"/><g fill="#fff" stroke="#2457e7" stroke-width="2"><circle cx="-104" r="6"/><circle cx="104" r="6"/></g><circle cx="104" r="14" fill="#2457e7" fill-opacity=".07"/></g></g>
<g fill="#fff" stroke="#2457e7" stroke-width="2.5"><rect x="115" y="287" width="14" height="14" rx="3"/><rect x="327" y="128" width="14" height="14" rx="3"/><rect x="590" y="203" width="14" height="14" rx="3"/></g></svg>